<mxfile host="app.diagrams.net" agent="Mozilla/5.0 (Windows NT 10.0; Win64; x64) AppleWebKit/537.36 (KHTML, like Gecko) Chrome/133.0.0.0 Safari/537.36 Edg/133.0.0.0" version="26.1.0">
  <diagram name="Page-1" id="XGahArAtt2Lf4uS-jcl0">
    <mxGraphModel dx="1869" dy="978" grid="1" gridSize="10" guides="1" tooltips="1" connect="1" arrows="1" fold="1" page="0" pageScale="1" pageWidth="850" pageHeight="1100" background="none" math="0" shadow="0">
      <root>
        <mxCell id="0" />
        <mxCell id="1" parent="0" />
        <mxCell id="IJctZO4Lj4U6wVQgpi5t-3" value="" style="rounded=1;whiteSpace=wrap;html=1;" vertex="1" parent="1">
          <mxGeometry x="-80" y="480" width="280" height="160" as="geometry" />
        </mxCell>
        <mxCell id="IJctZO4Lj4U6wVQgpi5t-4" value="&lt;font face=&quot;Tahoma&quot;&gt;RNN Node&lt;/font&gt;" style="text;html=1;align=center;verticalAlign=middle;resizable=0;points=[];autosize=1;strokeColor=none;fillColor=none;fontSize=16;" vertex="1" parent="1">
          <mxGeometry x="10" y="440" width="100" height="30" as="geometry" />
        </mxCell>
        <mxCell id="IJctZO4Lj4U6wVQgpi5t-10" style="edgeStyle=none;curved=1;rounded=0;orthogonalLoop=1;jettySize=auto;html=1;entryX=0.5;entryY=1;entryDx=0;entryDy=0;fontSize=12;startSize=8;endSize=8;" edge="1" parent="1" source="IJctZO4Lj4U6wVQgpi5t-7" target="IJctZO4Lj4U6wVQgpi5t-9">
          <mxGeometry relative="1" as="geometry" />
        </mxCell>
        <mxCell id="IJctZO4Lj4U6wVQgpi5t-7" value="&lt;div style=&quot;line-height: 100%;&quot;&gt;x&lt;span&gt;&lt;sub&gt;t&lt;/sub&gt;&lt;/span&gt;&lt;/div&gt;" style="ellipse;whiteSpace=wrap;html=1;aspect=fixed;fillColor=#b0e3e6;strokeColor=#0e8088;fontSize=16;shadow=1;" vertex="1" parent="1">
          <mxGeometry x="-42.5" y="680" width="40" height="40" as="geometry" />
        </mxCell>
        <mxCell id="IJctZO4Lj4U6wVQgpi5t-17" style="edgeStyle=orthogonalEdgeStyle;rounded=0;orthogonalLoop=1;jettySize=auto;html=1;exitX=1;exitY=0.5;exitDx=0;exitDy=0;entryX=0.5;entryY=1;entryDx=0;entryDy=0;fontSize=12;startSize=8;endSize=8;" edge="1" parent="1" source="IJctZO4Lj4U6wVQgpi5t-9" target="IJctZO4Lj4U6wVQgpi5t-15">
          <mxGeometry relative="1" as="geometry" />
        </mxCell>
        <mxCell id="IJctZO4Lj4U6wVQgpi5t-9" value="&lt;font face=&quot;Tahoma&quot; style=&quot;font-size: 16px; line-height: 100%;&quot;&gt;linear&lt;/font&gt;" style="rounded=0;whiteSpace=wrap;html=1;fillColor=#fad7ac;strokeColor=#b46504;" vertex="1" parent="1">
          <mxGeometry x="-55" y="590" width="65" height="30" as="geometry" />
        </mxCell>
        <mxCell id="IJctZO4Lj4U6wVQgpi5t-16" style="edgeStyle=orthogonalEdgeStyle;rounded=0;orthogonalLoop=1;jettySize=auto;html=1;exitX=1;exitY=0.5;exitDx=0;exitDy=0;entryX=0;entryY=0.5;entryDx=0;entryDy=0;fontSize=12;startSize=8;endSize=8;" edge="1" parent="1" source="IJctZO4Lj4U6wVQgpi5t-11" target="IJctZO4Lj4U6wVQgpi5t-15">
          <mxGeometry relative="1" as="geometry" />
        </mxCell>
        <mxCell id="IJctZO4Lj4U6wVQgpi5t-11" value="&lt;font face=&quot;Tahoma&quot; style=&quot;font-size: 16px; line-height: 100%;&quot;&gt;linear&lt;/font&gt;" style="rounded=0;whiteSpace=wrap;html=1;fillColor=#fad7ac;strokeColor=#b46504;" vertex="1" parent="1">
          <mxGeometry x="-55" y="500" width="65" height="30" as="geometry" />
        </mxCell>
        <mxCell id="IJctZO4Lj4U6wVQgpi5t-23" style="edgeStyle=none;curved=1;rounded=0;orthogonalLoop=1;jettySize=auto;html=1;entryX=0.5;entryY=0;entryDx=0;entryDy=0;fontSize=12;startSize=8;endSize=8;" edge="1" parent="1" source="IJctZO4Lj4U6wVQgpi5t-13" target="IJctZO4Lj4U6wVQgpi5t-22">
          <mxGeometry relative="1" as="geometry" />
        </mxCell>
        <mxCell id="IJctZO4Lj4U6wVQgpi5t-27" style="edgeStyle=none;curved=1;rounded=0;orthogonalLoop=1;jettySize=auto;html=1;fontSize=12;startSize=8;endSize=8;entryX=0;entryY=0.5;entryDx=0;entryDy=0;" edge="1" parent="1" source="IJctZO4Lj4U6wVQgpi5t-13">
          <mxGeometry relative="1" as="geometry">
            <mxPoint x="315" y="515" as="targetPoint" />
          </mxGeometry>
        </mxCell>
        <mxCell id="IJctZO4Lj4U6wVQgpi5t-13" value="&lt;font face=&quot;Tahoma&quot; style=&quot;font-size: 16px; line-height: 100%;&quot;&gt;tanh&lt;/font&gt;" style="rounded=1;whiteSpace=wrap;html=1;fillColor=#fad9d5;strokeColor=#ae4132;gradientColor=none;arcSize=50;" vertex="1" parent="1">
          <mxGeometry x="110" y="500" width="60" height="30" as="geometry" />
        </mxCell>
        <mxCell id="IJctZO4Lj4U6wVQgpi5t-19" style="edgeStyle=none;curved=1;rounded=0;orthogonalLoop=1;jettySize=auto;html=1;entryX=0;entryY=0.5;entryDx=0;entryDy=0;fontSize=12;startSize=8;endSize=8;" edge="1" parent="1" source="IJctZO4Lj4U6wVQgpi5t-15" target="IJctZO4Lj4U6wVQgpi5t-13">
          <mxGeometry relative="1" as="geometry" />
        </mxCell>
        <mxCell id="IJctZO4Lj4U6wVQgpi5t-15" value="&lt;font face=&quot;Tahoma&quot;&gt;&lt;b style=&quot;line-height: 100%;&quot;&gt;+&lt;/b&gt;&lt;/font&gt;" style="ellipse;whiteSpace=wrap;html=1;aspect=fixed;fillColor=#fad9d5;strokeColor=#ae4132;" vertex="1" parent="1">
          <mxGeometry x="50" y="505" width="20" height="20" as="geometry" />
        </mxCell>
        <mxCell id="IJctZO4Lj4U6wVQgpi5t-18" style="edgeStyle=none;curved=1;rounded=0;orthogonalLoop=1;jettySize=auto;html=1;exitX=0;exitY=0.5;exitDx=0;exitDy=0;fontSize=12;startSize=8;endSize=8;" edge="1" parent="1" source="IJctZO4Lj4U6wVQgpi5t-13" target="IJctZO4Lj4U6wVQgpi5t-13">
          <mxGeometry relative="1" as="geometry" />
        </mxCell>
        <mxCell id="IJctZO4Lj4U6wVQgpi5t-25" style="edgeStyle=none;curved=1;rounded=0;orthogonalLoop=1;jettySize=auto;html=1;entryX=0.5;entryY=0;entryDx=0;entryDy=0;fontSize=12;startSize=8;endSize=8;" edge="1" parent="1" source="IJctZO4Lj4U6wVQgpi5t-22" target="IJctZO4Lj4U6wVQgpi5t-24">
          <mxGeometry relative="1" as="geometry" />
        </mxCell>
        <mxCell id="IJctZO4Lj4U6wVQgpi5t-22" value="&lt;font face=&quot;Tahoma&quot; style=&quot;font-size: 16px; line-height: 100%;&quot;&gt;linear&lt;/font&gt;" style="rounded=0;whiteSpace=wrap;html=1;fillColor=#fad7ac;strokeColor=#b46504;" vertex="1" parent="1">
          <mxGeometry x="107.5" y="550" width="65" height="30" as="geometry" />
        </mxCell>
        <mxCell id="IJctZO4Lj4U6wVQgpi5t-30" style="edgeStyle=none;curved=1;rounded=0;orthogonalLoop=1;jettySize=auto;html=1;entryX=0.5;entryY=0;entryDx=0;entryDy=0;fontSize=12;startSize=8;endSize=8;" edge="1" parent="1" source="IJctZO4Lj4U6wVQgpi5t-24" target="IJctZO4Lj4U6wVQgpi5t-29">
          <mxGeometry relative="1" as="geometry" />
        </mxCell>
        <mxCell id="IJctZO4Lj4U6wVQgpi5t-24" value="&lt;font face=&quot;Tahoma&quot; style=&quot;font-size: 16px; line-height: 100%;&quot;&gt;softmax&lt;/font&gt;" style="rounded=1;whiteSpace=wrap;html=1;fillColor=#fad9d5;strokeColor=#ae4132;arcSize=50;" vertex="1" parent="1">
          <mxGeometry x="107.5" y="600" width="65" height="30" as="geometry" />
        </mxCell>
        <mxCell id="IJctZO4Lj4U6wVQgpi5t-29" value="&lt;div style=&quot;line-height: 100%;&quot;&gt;&lt;font style=&quot;font-size: 16px;&quot;&gt;h&lt;sub&gt;t&lt;/sub&gt;&lt;/font&gt;&lt;/div&gt;" style="ellipse;whiteSpace=wrap;html=1;aspect=fixed;fillColor=#d0cee2;strokeColor=#56517e;shadow=1;" vertex="1" parent="1">
          <mxGeometry x="120" y="680" width="40" height="40" as="geometry" />
        </mxCell>
        <mxCell id="IJctZO4Lj4U6wVQgpi5t-53" style="edgeStyle=none;curved=1;rounded=0;orthogonalLoop=1;jettySize=auto;html=1;exitX=1;exitY=0.5;exitDx=0;exitDy=0;fontSize=12;startSize=8;endSize=8;entryX=0;entryY=0.5;entryDx=0;entryDy=0;" edge="1" parent="1" target="IJctZO4Lj4U6wVQgpi5t-11">
          <mxGeometry relative="1" as="geometry">
            <mxPoint x="-200" y="515" as="sourcePoint" />
            <mxPoint x="-80" y="515" as="targetPoint" />
          </mxGeometry>
        </mxCell>
        <mxCell id="IJctZO4Lj4U6wVQgpi5t-54" value="&lt;font face=&quot;Tahoma&quot;&gt;&lt;span style=&quot;font-size: 16px; line-height: 100%;&quot;&gt;hidden&lt;/span&gt;&lt;/font&gt;" style="rounded=0;whiteSpace=wrap;html=1;fillColor=#63FFC5;strokeColor=#0e8088;shadow=1;" vertex="1" parent="1">
          <mxGeometry x="-160" y="470" width="70" height="40" as="geometry" />
        </mxCell>
        <mxCell id="IJctZO4Lj4U6wVQgpi5t-74" value="&lt;font face=&quot;Tahoma&quot;&gt;&lt;span style=&quot;font-size: 16px; line-height: 100%;&quot;&gt;hidden&lt;/span&gt;&lt;/font&gt;" style="rounded=0;whiteSpace=wrap;html=1;fillColor=#63FFC5;strokeColor=#0e8088;shadow=1;" vertex="1" parent="1">
          <mxGeometry x="210" y="470" width="70" height="40" as="geometry" />
        </mxCell>
        <mxCell id="IJctZO4Lj4U6wVQgpi5t-97" value="" style="group" vertex="1" connectable="0" parent="1">
          <mxGeometry x="-450" y="480" width="280" height="240" as="geometry" />
        </mxCell>
        <mxCell id="IJctZO4Lj4U6wVQgpi5t-75" value="" style="rounded=1;whiteSpace=wrap;html=1;opacity=20;" vertex="1" parent="IJctZO4Lj4U6wVQgpi5t-97">
          <mxGeometry width="280" height="160" as="geometry" />
        </mxCell>
        <mxCell id="IJctZO4Lj4U6wVQgpi5t-77" style="edgeStyle=none;curved=1;rounded=0;orthogonalLoop=1;jettySize=auto;html=1;entryX=0.5;entryY=1;entryDx=0;entryDy=0;fontSize=12;startSize=8;endSize=8;opacity=20;" edge="1" parent="IJctZO4Lj4U6wVQgpi5t-97" source="IJctZO4Lj4U6wVQgpi5t-78" target="IJctZO4Lj4U6wVQgpi5t-80">
          <mxGeometry relative="1" as="geometry" />
        </mxCell>
        <mxCell id="IJctZO4Lj4U6wVQgpi5t-78" value="&lt;div style=&quot;line-height: 100%;&quot;&gt;&lt;font style=&quot;font-size: 16px;&quot;&gt;x&lt;sub&gt;t-1&lt;/sub&gt;&lt;/font&gt;&lt;/div&gt;" style="ellipse;whiteSpace=wrap;html=1;aspect=fixed;fillColor=#b0e3e6;strokeColor=#0e8088;opacity=20;" vertex="1" parent="IJctZO4Lj4U6wVQgpi5t-97">
          <mxGeometry x="37.5" y="200" width="40" height="40" as="geometry" />
        </mxCell>
        <mxCell id="IJctZO4Lj4U6wVQgpi5t-79" style="edgeStyle=orthogonalEdgeStyle;rounded=0;orthogonalLoop=1;jettySize=auto;html=1;exitX=1;exitY=0.5;exitDx=0;exitDy=0;entryX=0.5;entryY=1;entryDx=0;entryDy=0;fontSize=12;startSize=8;endSize=8;opacity=20;" edge="1" parent="IJctZO4Lj4U6wVQgpi5t-97" source="IJctZO4Lj4U6wVQgpi5t-80" target="IJctZO4Lj4U6wVQgpi5t-87">
          <mxGeometry relative="1" as="geometry" />
        </mxCell>
        <mxCell id="IJctZO4Lj4U6wVQgpi5t-80" value="" style="rounded=0;whiteSpace=wrap;html=1;fillColor=#fad7ac;strokeColor=#b46504;opacity=20;" vertex="1" parent="IJctZO4Lj4U6wVQgpi5t-97">
          <mxGeometry x="25" y="110" width="65" height="30" as="geometry" />
        </mxCell>
        <mxCell id="IJctZO4Lj4U6wVQgpi5t-81" style="edgeStyle=orthogonalEdgeStyle;rounded=0;orthogonalLoop=1;jettySize=auto;html=1;exitX=1;exitY=0.5;exitDx=0;exitDy=0;entryX=0;entryY=0.5;entryDx=0;entryDy=0;fontSize=12;startSize=8;endSize=8;opacity=20;" edge="1" parent="IJctZO4Lj4U6wVQgpi5t-97" source="IJctZO4Lj4U6wVQgpi5t-82" target="IJctZO4Lj4U6wVQgpi5t-87">
          <mxGeometry relative="1" as="geometry" />
        </mxCell>
        <mxCell id="IJctZO4Lj4U6wVQgpi5t-82" value="" style="rounded=0;whiteSpace=wrap;html=1;fillColor=#fad7ac;strokeColor=#b46504;opacity=20;" vertex="1" parent="IJctZO4Lj4U6wVQgpi5t-97">
          <mxGeometry x="25" y="20" width="65" height="30" as="geometry" />
        </mxCell>
        <mxCell id="IJctZO4Lj4U6wVQgpi5t-83" style="edgeStyle=none;curved=1;rounded=0;orthogonalLoop=1;jettySize=auto;html=1;entryX=0.5;entryY=0;entryDx=0;entryDy=0;fontSize=12;startSize=8;endSize=8;opacity=20;" edge="1" parent="IJctZO4Lj4U6wVQgpi5t-97" source="IJctZO4Lj4U6wVQgpi5t-85" target="IJctZO4Lj4U6wVQgpi5t-90">
          <mxGeometry relative="1" as="geometry" />
        </mxCell>
        <mxCell id="IJctZO4Lj4U6wVQgpi5t-85" value="" style="rounded=1;whiteSpace=wrap;html=1;fillColor=#fad9d5;strokeColor=#ae4132;gradientColor=none;arcSize=50;opacity=20;" vertex="1" parent="IJctZO4Lj4U6wVQgpi5t-97">
          <mxGeometry x="190" y="20" width="60" height="30" as="geometry" />
        </mxCell>
        <mxCell id="IJctZO4Lj4U6wVQgpi5t-86" style="edgeStyle=none;curved=1;rounded=0;orthogonalLoop=1;jettySize=auto;html=1;entryX=0;entryY=0.5;entryDx=0;entryDy=0;fontSize=12;startSize=8;endSize=8;opacity=20;" edge="1" parent="IJctZO4Lj4U6wVQgpi5t-97" source="IJctZO4Lj4U6wVQgpi5t-87" target="IJctZO4Lj4U6wVQgpi5t-85">
          <mxGeometry relative="1" as="geometry" />
        </mxCell>
        <mxCell id="IJctZO4Lj4U6wVQgpi5t-87" value="" style="ellipse;whiteSpace=wrap;html=1;aspect=fixed;fillColor=#fad9d5;strokeColor=#ae4132;opacity=20;" vertex="1" parent="IJctZO4Lj4U6wVQgpi5t-97">
          <mxGeometry x="130" y="25" width="20" height="20" as="geometry" />
        </mxCell>
        <mxCell id="IJctZO4Lj4U6wVQgpi5t-88" style="edgeStyle=none;curved=1;rounded=0;orthogonalLoop=1;jettySize=auto;html=1;exitX=0;exitY=0.5;exitDx=0;exitDy=0;fontSize=12;startSize=8;endSize=8;opacity=20;" edge="1" parent="IJctZO4Lj4U6wVQgpi5t-97" source="IJctZO4Lj4U6wVQgpi5t-85" target="IJctZO4Lj4U6wVQgpi5t-85">
          <mxGeometry relative="1" as="geometry" />
        </mxCell>
        <mxCell id="IJctZO4Lj4U6wVQgpi5t-89" style="edgeStyle=none;curved=1;rounded=0;orthogonalLoop=1;jettySize=auto;html=1;entryX=0.5;entryY=0;entryDx=0;entryDy=0;fontSize=12;startSize=8;endSize=8;opacity=20;" edge="1" parent="IJctZO4Lj4U6wVQgpi5t-97" source="IJctZO4Lj4U6wVQgpi5t-90" target="IJctZO4Lj4U6wVQgpi5t-92">
          <mxGeometry relative="1" as="geometry" />
        </mxCell>
        <mxCell id="IJctZO4Lj4U6wVQgpi5t-90" value="" style="rounded=0;whiteSpace=wrap;html=1;fillColor=#fad7ac;strokeColor=#b46504;opacity=20;" vertex="1" parent="IJctZO4Lj4U6wVQgpi5t-97">
          <mxGeometry x="187.5" y="70" width="65" height="30" as="geometry" />
        </mxCell>
        <mxCell id="IJctZO4Lj4U6wVQgpi5t-91" style="edgeStyle=none;curved=1;rounded=0;orthogonalLoop=1;jettySize=auto;html=1;entryX=0.5;entryY=0;entryDx=0;entryDy=0;fontSize=12;startSize=8;endSize=8;opacity=20;" edge="1" parent="IJctZO4Lj4U6wVQgpi5t-97" source="IJctZO4Lj4U6wVQgpi5t-92" target="IJctZO4Lj4U6wVQgpi5t-93">
          <mxGeometry relative="1" as="geometry" />
        </mxCell>
        <mxCell id="IJctZO4Lj4U6wVQgpi5t-92" value="" style="rounded=1;whiteSpace=wrap;html=1;fillColor=#fad9d5;strokeColor=#ae4132;arcSize=50;opacity=20;" vertex="1" parent="IJctZO4Lj4U6wVQgpi5t-97">
          <mxGeometry x="187.5" y="120" width="65" height="30" as="geometry" />
        </mxCell>
        <mxCell id="IJctZO4Lj4U6wVQgpi5t-93" value="&lt;div style=&quot;line-height: 100%;&quot;&gt;&lt;font style=&quot;font-size: 16px;&quot;&gt;h&lt;sub style=&quot;&quot;&gt;t-1&lt;/sub&gt;&lt;/font&gt;&lt;/div&gt;" style="ellipse;whiteSpace=wrap;html=1;aspect=fixed;fillColor=#d0cee2;strokeColor=#56517e;opacity=20;" vertex="1" parent="IJctZO4Lj4U6wVQgpi5t-97">
          <mxGeometry x="200" y="200" width="40" height="40" as="geometry" />
        </mxCell>
        <mxCell id="IJctZO4Lj4U6wVQgpi5t-98" value="" style="group" vertex="1" connectable="0" parent="1">
          <mxGeometry x="290" y="480" width="280" height="240" as="geometry" />
        </mxCell>
        <mxCell id="IJctZO4Lj4U6wVQgpi5t-99" value="" style="rounded=1;whiteSpace=wrap;html=1;opacity=20;" vertex="1" parent="IJctZO4Lj4U6wVQgpi5t-98">
          <mxGeometry width="280" height="160" as="geometry" />
        </mxCell>
        <mxCell id="IJctZO4Lj4U6wVQgpi5t-100" style="edgeStyle=none;curved=1;rounded=0;orthogonalLoop=1;jettySize=auto;html=1;entryX=0.5;entryY=1;entryDx=0;entryDy=0;fontSize=12;startSize=8;endSize=8;opacity=20;" edge="1" parent="IJctZO4Lj4U6wVQgpi5t-98" source="IJctZO4Lj4U6wVQgpi5t-101" target="IJctZO4Lj4U6wVQgpi5t-103">
          <mxGeometry relative="1" as="geometry" />
        </mxCell>
        <mxCell id="IJctZO4Lj4U6wVQgpi5t-101" value="&lt;div style=&quot;line-height: 100%;&quot;&gt;&lt;font style=&quot;font-size: 16px;&quot;&gt;x&lt;sub&gt;t+1&lt;/sub&gt;&lt;/font&gt;&lt;/div&gt;" style="ellipse;whiteSpace=wrap;html=1;aspect=fixed;fillColor=#b0e3e6;strokeColor=#0e8088;opacity=20;" vertex="1" parent="IJctZO4Lj4U6wVQgpi5t-98">
          <mxGeometry x="37.5" y="200" width="40" height="40" as="geometry" />
        </mxCell>
        <mxCell id="IJctZO4Lj4U6wVQgpi5t-102" style="edgeStyle=orthogonalEdgeStyle;rounded=0;orthogonalLoop=1;jettySize=auto;html=1;exitX=1;exitY=0.5;exitDx=0;exitDy=0;entryX=0.5;entryY=1;entryDx=0;entryDy=0;fontSize=12;startSize=8;endSize=8;opacity=20;" edge="1" parent="IJctZO4Lj4U6wVQgpi5t-98" source="IJctZO4Lj4U6wVQgpi5t-103" target="IJctZO4Lj4U6wVQgpi5t-109">
          <mxGeometry relative="1" as="geometry" />
        </mxCell>
        <mxCell id="IJctZO4Lj4U6wVQgpi5t-103" value="" style="rounded=0;whiteSpace=wrap;html=1;fillColor=#fad7ac;strokeColor=#b46504;opacity=20;" vertex="1" parent="IJctZO4Lj4U6wVQgpi5t-98">
          <mxGeometry x="25" y="110" width="65" height="30" as="geometry" />
        </mxCell>
        <mxCell id="IJctZO4Lj4U6wVQgpi5t-104" style="edgeStyle=orthogonalEdgeStyle;rounded=0;orthogonalLoop=1;jettySize=auto;html=1;exitX=1;exitY=0.5;exitDx=0;exitDy=0;entryX=0;entryY=0.5;entryDx=0;entryDy=0;fontSize=12;startSize=8;endSize=8;opacity=20;" edge="1" parent="IJctZO4Lj4U6wVQgpi5t-98" source="IJctZO4Lj4U6wVQgpi5t-105" target="IJctZO4Lj4U6wVQgpi5t-109">
          <mxGeometry relative="1" as="geometry" />
        </mxCell>
        <mxCell id="IJctZO4Lj4U6wVQgpi5t-105" value="" style="rounded=0;whiteSpace=wrap;html=1;fillColor=#fad7ac;strokeColor=#b46504;opacity=20;" vertex="1" parent="IJctZO4Lj4U6wVQgpi5t-98">
          <mxGeometry x="25" y="20" width="65" height="30" as="geometry" />
        </mxCell>
        <mxCell id="IJctZO4Lj4U6wVQgpi5t-106" style="edgeStyle=none;curved=1;rounded=0;orthogonalLoop=1;jettySize=auto;html=1;entryX=0.5;entryY=0;entryDx=0;entryDy=0;fontSize=12;startSize=8;endSize=8;opacity=20;" edge="1" parent="IJctZO4Lj4U6wVQgpi5t-98" source="IJctZO4Lj4U6wVQgpi5t-107" target="IJctZO4Lj4U6wVQgpi5t-112">
          <mxGeometry relative="1" as="geometry" />
        </mxCell>
        <mxCell id="IJctZO4Lj4U6wVQgpi5t-107" value="" style="rounded=1;whiteSpace=wrap;html=1;fillColor=#fad9d5;strokeColor=#ae4132;gradientColor=none;arcSize=50;opacity=20;" vertex="1" parent="IJctZO4Lj4U6wVQgpi5t-98">
          <mxGeometry x="190" y="20" width="60" height="30" as="geometry" />
        </mxCell>
        <mxCell id="IJctZO4Lj4U6wVQgpi5t-108" style="edgeStyle=none;curved=1;rounded=0;orthogonalLoop=1;jettySize=auto;html=1;entryX=0;entryY=0.5;entryDx=0;entryDy=0;fontSize=12;startSize=8;endSize=8;opacity=20;" edge="1" parent="IJctZO4Lj4U6wVQgpi5t-98" source="IJctZO4Lj4U6wVQgpi5t-109" target="IJctZO4Lj4U6wVQgpi5t-107">
          <mxGeometry relative="1" as="geometry" />
        </mxCell>
        <mxCell id="IJctZO4Lj4U6wVQgpi5t-109" value="" style="ellipse;whiteSpace=wrap;html=1;aspect=fixed;fillColor=#fad9d5;strokeColor=#ae4132;opacity=20;" vertex="1" parent="IJctZO4Lj4U6wVQgpi5t-98">
          <mxGeometry x="130" y="25" width="20" height="20" as="geometry" />
        </mxCell>
        <mxCell id="IJctZO4Lj4U6wVQgpi5t-110" style="edgeStyle=none;curved=1;rounded=0;orthogonalLoop=1;jettySize=auto;html=1;exitX=0;exitY=0.5;exitDx=0;exitDy=0;fontSize=12;startSize=8;endSize=8;opacity=20;" edge="1" parent="IJctZO4Lj4U6wVQgpi5t-98" source="IJctZO4Lj4U6wVQgpi5t-107" target="IJctZO4Lj4U6wVQgpi5t-107">
          <mxGeometry relative="1" as="geometry" />
        </mxCell>
        <mxCell id="IJctZO4Lj4U6wVQgpi5t-111" style="edgeStyle=none;curved=1;rounded=0;orthogonalLoop=1;jettySize=auto;html=1;entryX=0.5;entryY=0;entryDx=0;entryDy=0;fontSize=12;startSize=8;endSize=8;opacity=20;" edge="1" parent="IJctZO4Lj4U6wVQgpi5t-98" source="IJctZO4Lj4U6wVQgpi5t-112" target="IJctZO4Lj4U6wVQgpi5t-114">
          <mxGeometry relative="1" as="geometry" />
        </mxCell>
        <mxCell id="IJctZO4Lj4U6wVQgpi5t-112" value="" style="rounded=0;whiteSpace=wrap;html=1;fillColor=#fad7ac;strokeColor=#b46504;opacity=20;" vertex="1" parent="IJctZO4Lj4U6wVQgpi5t-98">
          <mxGeometry x="187.5" y="70" width="65" height="30" as="geometry" />
        </mxCell>
        <mxCell id="IJctZO4Lj4U6wVQgpi5t-113" style="edgeStyle=none;curved=1;rounded=0;orthogonalLoop=1;jettySize=auto;html=1;entryX=0.5;entryY=0;entryDx=0;entryDy=0;fontSize=12;startSize=8;endSize=8;opacity=20;" edge="1" parent="IJctZO4Lj4U6wVQgpi5t-98" source="IJctZO4Lj4U6wVQgpi5t-114" target="IJctZO4Lj4U6wVQgpi5t-115">
          <mxGeometry relative="1" as="geometry" />
        </mxCell>
        <mxCell id="IJctZO4Lj4U6wVQgpi5t-114" value="" style="rounded=1;whiteSpace=wrap;html=1;fillColor=#fad9d5;strokeColor=#ae4132;arcSize=50;opacity=20;" vertex="1" parent="IJctZO4Lj4U6wVQgpi5t-98">
          <mxGeometry x="187.5" y="120" width="65" height="30" as="geometry" />
        </mxCell>
        <mxCell id="IJctZO4Lj4U6wVQgpi5t-115" value="&lt;div style=&quot;line-height: 100%;&quot;&gt;&lt;font style=&quot;font-size: 16px;&quot;&gt;h&lt;sub&gt;t+1&lt;/sub&gt;&lt;/font&gt;&lt;/div&gt;" style="ellipse;whiteSpace=wrap;html=1;aspect=fixed;fillColor=#d0cee2;strokeColor=#56517e;opacity=20;" vertex="1" parent="IJctZO4Lj4U6wVQgpi5t-98">
          <mxGeometry x="200" y="200" width="40" height="40" as="geometry" />
        </mxCell>
        <mxCell id="IJctZO4Lj4U6wVQgpi5t-117" value="input at time t" style="text;html=1;align=center;verticalAlign=middle;whiteSpace=wrap;rounded=0;" vertex="1" parent="1">
          <mxGeometry x="-182.5" y="860" width="80" height="30" as="geometry" />
        </mxCell>
        <mxCell id="IJctZO4Lj4U6wVQgpi5t-119" value="output at time t" style="text;html=1;align=center;verticalAlign=middle;whiteSpace=wrap;rounded=0;" vertex="1" parent="1">
          <mxGeometry x="-67.5" y="860" width="90" height="30" as="geometry" />
        </mxCell>
        <mxCell id="IJctZO4Lj4U6wVQgpi5t-120" value="" style="rounded=0;whiteSpace=wrap;html=1;fillColor=#fad7ac;strokeColor=#b46504;" vertex="1" parent="1">
          <mxGeometry x="78.5" y="815" width="65" height="30" as="geometry" />
        </mxCell>
        <mxCell id="IJctZO4Lj4U6wVQgpi5t-121" value="&lt;div style=&quot;line-height: 100%;&quot;&gt;x&lt;span&gt;&lt;sub&gt;t&lt;/sub&gt;&lt;/span&gt;&lt;/div&gt;" style="ellipse;whiteSpace=wrap;html=1;aspect=fixed;fillColor=#b0e3e6;strokeColor=#0e8088;fontSize=16;" vertex="1" parent="1">
          <mxGeometry x="-162.5" y="810" width="40" height="40" as="geometry" />
        </mxCell>
        <mxCell id="IJctZO4Lj4U6wVQgpi5t-122" value="&lt;div style=&quot;line-height: 100%;&quot;&gt;&lt;font style=&quot;font-size: 16px;&quot;&gt;h&lt;sub&gt;t&lt;/sub&gt;&lt;/font&gt;&lt;/div&gt;" style="ellipse;whiteSpace=wrap;html=1;aspect=fixed;fillColor=#d0cee2;strokeColor=#56517e;" vertex="1" parent="1">
          <mxGeometry x="-42.5" y="810" width="40" height="40" as="geometry" />
        </mxCell>
        <mxCell id="IJctZO4Lj4U6wVQgpi5t-123" value="" style="rounded=1;whiteSpace=wrap;html=1;fillColor=#fad9d5;strokeColor=#ae4132;gradientColor=none;arcSize=50;" vertex="1" parent="1">
          <mxGeometry x="227.5" y="815" width="60" height="30" as="geometry" />
        </mxCell>
        <mxCell id="IJctZO4Lj4U6wVQgpi5t-124" value="pointwise operation" style="text;html=1;align=center;verticalAlign=middle;whiteSpace=wrap;rounded=0;" vertex="1" parent="1">
          <mxGeometry x="212.5" y="860" width="90" height="30" as="geometry" />
        </mxCell>
        <mxCell id="IJctZO4Lj4U6wVQgpi5t-125" value="neural network layer" style="text;html=1;align=center;verticalAlign=middle;whiteSpace=wrap;rounded=0;" vertex="1" parent="1">
          <mxGeometry x="66" y="860" width="90" height="30" as="geometry" />
        </mxCell>
        <mxCell id="IJctZO4Lj4U6wVQgpi5t-126" value="" style="rounded=1;whiteSpace=wrap;html=1;" vertex="1" parent="1">
          <mxGeometry x="-100" y="1040" width="280" height="160" as="geometry" />
        </mxCell>
        <mxCell id="IJctZO4Lj4U6wVQgpi5t-127" value="&lt;font face=&quot;Tahoma&quot;&gt;RNN Node&lt;/font&gt;" style="text;html=1;align=center;verticalAlign=middle;resizable=0;points=[];autosize=1;strokeColor=none;fillColor=none;fontSize=16;" vertex="1" parent="1">
          <mxGeometry x="-10" y="1000" width="100" height="30" as="geometry" />
        </mxCell>
        <mxCell id="IJctZO4Lj4U6wVQgpi5t-128" style="edgeStyle=none;curved=1;rounded=0;orthogonalLoop=1;jettySize=auto;html=1;entryX=0.5;entryY=1;entryDx=0;entryDy=0;fontSize=12;startSize=8;endSize=8;" edge="1" parent="1" source="IJctZO4Lj4U6wVQgpi5t-129" target="IJctZO4Lj4U6wVQgpi5t-138">
          <mxGeometry relative="1" as="geometry">
            <mxPoint x="-42.5" y="1180" as="targetPoint" />
          </mxGeometry>
        </mxCell>
        <mxCell id="IJctZO4Lj4U6wVQgpi5t-129" value="&lt;div style=&quot;line-height: 100%;&quot;&gt;x&lt;span&gt;&lt;sub&gt;t&lt;/sub&gt;&lt;/span&gt;&lt;/div&gt;" style="ellipse;whiteSpace=wrap;html=1;aspect=fixed;fillColor=#b0e3e6;strokeColor=#0e8088;fontSize=16;shadow=1;" vertex="1" parent="1">
          <mxGeometry x="-80" y="1240" width="40" height="40" as="geometry" />
        </mxCell>
        <mxCell id="IJctZO4Lj4U6wVQgpi5t-135" style="edgeStyle=none;curved=1;rounded=0;orthogonalLoop=1;jettySize=auto;html=1;fontSize=12;startSize=8;endSize=8;entryX=0;entryY=0.5;entryDx=0;entryDy=0;exitX=1;exitY=0.5;exitDx=0;exitDy=0;" edge="1" parent="1" source="IJctZO4Lj4U6wVQgpi5t-141">
          <mxGeometry relative="1" as="geometry">
            <mxPoint x="295" y="1075" as="targetPoint" />
            <mxPoint x="150" y="1075" as="sourcePoint" />
          </mxGeometry>
        </mxCell>
        <mxCell id="IJctZO4Lj4U6wVQgpi5t-184" style="edgeStyle=none;curved=1;rounded=0;orthogonalLoop=1;jettySize=auto;html=1;exitX=1;exitY=0.5;exitDx=0;exitDy=0;entryX=0;entryY=0.5;entryDx=0;entryDy=0;fontSize=12;startSize=8;endSize=8;" edge="1" parent="1" source="IJctZO4Lj4U6wVQgpi5t-138" target="IJctZO4Lj4U6wVQgpi5t-141">
          <mxGeometry relative="1" as="geometry" />
        </mxCell>
        <mxCell id="IJctZO4Lj4U6wVQgpi5t-138" value="&lt;font face=&quot;Tahoma&quot;&gt;&lt;b style=&quot;line-height: 100%;&quot;&gt;+&lt;/b&gt;&lt;/font&gt;" style="ellipse;whiteSpace=wrap;html=1;aspect=fixed;fillColor=#fad9d5;strokeColor=#ae4132;" vertex="1" parent="1">
          <mxGeometry x="-70" y="1065" width="20" height="20" as="geometry" />
        </mxCell>
        <mxCell id="IJctZO4Lj4U6wVQgpi5t-139" style="edgeStyle=none;curved=1;rounded=0;orthogonalLoop=1;jettySize=auto;html=1;exitX=0;exitY=0.5;exitDx=0;exitDy=0;fontSize=12;startSize=8;endSize=8;" edge="1" parent="1">
          <mxGeometry relative="1" as="geometry">
            <mxPoint x="90" y="1075" as="sourcePoint" />
            <mxPoint x="90" y="1075" as="targetPoint" />
          </mxGeometry>
        </mxCell>
        <mxCell id="IJctZO4Lj4U6wVQgpi5t-186" style="edgeStyle=none;curved=1;rounded=0;orthogonalLoop=1;jettySize=auto;html=1;exitX=0.5;exitY=1;exitDx=0;exitDy=0;entryX=0.5;entryY=0;entryDx=0;entryDy=0;fontSize=12;startSize=8;endSize=8;" edge="1" parent="1" source="IJctZO4Lj4U6wVQgpi5t-141" target="IJctZO4Lj4U6wVQgpi5t-185">
          <mxGeometry relative="1" as="geometry" />
        </mxCell>
        <mxCell id="IJctZO4Lj4U6wVQgpi5t-141" value="&lt;font face=&quot;Tahoma&quot; style=&quot;font-size: 16px; line-height: 100%;&quot;&gt;linear&lt;/font&gt;" style="rounded=0;whiteSpace=wrap;html=1;fillColor=#fad7ac;strokeColor=#b46504;" vertex="1" parent="1">
          <mxGeometry x="87.5" y="1060" width="65" height="30" as="geometry" />
        </mxCell>
        <mxCell id="IJctZO4Lj4U6wVQgpi5t-142" style="edgeStyle=none;curved=1;rounded=0;orthogonalLoop=1;jettySize=auto;html=1;entryX=0.5;entryY=0;entryDx=0;entryDy=0;fontSize=12;startSize=8;endSize=8;" edge="1" parent="1" source="IJctZO4Lj4U6wVQgpi5t-143" target="IJctZO4Lj4U6wVQgpi5t-144">
          <mxGeometry relative="1" as="geometry" />
        </mxCell>
        <mxCell id="IJctZO4Lj4U6wVQgpi5t-143" value="&lt;font face=&quot;Tahoma&quot; style=&quot;font-size: 16px; line-height: 100%;&quot;&gt;softmax&lt;/font&gt;" style="rounded=1;whiteSpace=wrap;html=1;fillColor=#fad9d5;strokeColor=#ae4132;arcSize=50;" vertex="1" parent="1">
          <mxGeometry x="87.5" y="1160" width="65" height="30" as="geometry" />
        </mxCell>
        <mxCell id="IJctZO4Lj4U6wVQgpi5t-144" value="&lt;div style=&quot;line-height: 100%;&quot;&gt;&lt;font style=&quot;font-size: 16px;&quot;&gt;h&lt;sub&gt;t&lt;/sub&gt;&lt;/font&gt;&lt;/div&gt;" style="ellipse;whiteSpace=wrap;html=1;aspect=fixed;fillColor=#d0cee2;strokeColor=#56517e;shadow=1;" vertex="1" parent="1">
          <mxGeometry x="100" y="1240" width="40" height="40" as="geometry" />
        </mxCell>
        <mxCell id="IJctZO4Lj4U6wVQgpi5t-145" style="edgeStyle=none;curved=1;rounded=0;orthogonalLoop=1;jettySize=auto;html=1;exitX=1;exitY=0.5;exitDx=0;exitDy=0;fontSize=12;startSize=8;endSize=8;entryX=0;entryY=0.5;entryDx=0;entryDy=0;" edge="1" parent="1" target="IJctZO4Lj4U6wVQgpi5t-138">
          <mxGeometry relative="1" as="geometry">
            <mxPoint x="-220" y="1075" as="sourcePoint" />
            <mxPoint x="-75" y="1075" as="targetPoint" />
          </mxGeometry>
        </mxCell>
        <mxCell id="IJctZO4Lj4U6wVQgpi5t-146" value="&lt;font face=&quot;Tahoma&quot;&gt;&lt;span style=&quot;font-size: 16px; line-height: 100%;&quot;&gt;hidden&lt;/span&gt;&lt;/font&gt;" style="rounded=0;whiteSpace=wrap;html=1;fillColor=#63FFC5;strokeColor=#0e8088;shadow=1;" vertex="1" parent="1">
          <mxGeometry x="-290" y="1055" width="70" height="40" as="geometry" />
        </mxCell>
        <mxCell id="IJctZO4Lj4U6wVQgpi5t-147" value="&lt;font face=&quot;Tahoma&quot;&gt;&lt;span style=&quot;font-size: 16px; line-height: 100%;&quot;&gt;hidden&lt;/span&gt;&lt;/font&gt;" style="rounded=0;whiteSpace=wrap;html=1;fillColor=#63FFC5;strokeColor=#0e8088;shadow=1;" vertex="1" parent="1">
          <mxGeometry x="300" y="1055" width="70" height="40" as="geometry" />
        </mxCell>
        <mxCell id="IJctZO4Lj4U6wVQgpi5t-187" style="edgeStyle=none;curved=1;rounded=0;orthogonalLoop=1;jettySize=auto;html=1;entryX=0.5;entryY=0;entryDx=0;entryDy=0;fontSize=12;startSize=8;endSize=8;" edge="1" parent="1" source="IJctZO4Lj4U6wVQgpi5t-185" target="IJctZO4Lj4U6wVQgpi5t-143">
          <mxGeometry relative="1" as="geometry" />
        </mxCell>
        <mxCell id="IJctZO4Lj4U6wVQgpi5t-185" value="&lt;font face=&quot;Tahoma&quot; style=&quot;font-size: 16px; line-height: 100%;&quot;&gt;linear&lt;/font&gt;" style="rounded=0;whiteSpace=wrap;html=1;fillColor=#fad7ac;strokeColor=#b46504;" vertex="1" parent="1">
          <mxGeometry x="87.5" y="1110" width="65" height="30" as="geometry" />
        </mxCell>
      </root>
    </mxGraphModel>
  </diagram>
</mxfile>
